<svg id="Layer_1" data-name="Layer 1" xmlns="http://www.w3.org/2000/svg" viewBox="0 0 2500 1080"><defs><style>.cls-1{fill:#fff;}.cls-2{fill:#4189c1;}</style></defs><title>Artboard 1Iqua Logo Slim</title><rect class="cls-1" x="956" y="244.51" width="1131.46" height="304.4" transform="translate(-47.48 499.83) rotate(-18.37)"/><path class="cls-2" d="M944,37.17c30-5.87,59.86-13,90.11-17.36,69.46-9.92,138.31-4.66,204.82,17.32,47.44,15.67,91.29,39.68,129.28,72.74a483.82,483.82,0,0,1,44.6,44.25c8.2,9.26,14.69,10.1,25.51,4.81,81.59-39.9,165.8-73,253.76-96.34,81-21.51,163.65-32.69,247.18-36.24,68.37-2.91,125.2,23.28,169,75.93,9.68,11.64,17.91,15.29,33.46,9.77,65.83-23.34,135.05-27.76,204-32.81,25.9-1.9,51.91-2.39,77.88-3.31,35.36-1.25,63.36,20,70.19,53.12,6.76,32.71-12.7,63.6-44.9,77.49-66.93,28.86-133.27,59.1-199.42,89.71-6,2.79-12.26,12.07-12.81,18.8-7.95,97.26-58.11,169.2-134.32,225.74q-27.93,20.73-57,39.93c-34.07,22.48-58.94,52.87-70.71,91.28-28.51,93.11-87.15,163.38-162.38,222-74.28,57.89-156.5,101.51-244,135.69-2.45,1-5.09,1.46-9.87-.12q12.68-15.22,25.34-30.46c43.51-52.61,76.61-110.8,92.87-177.45,5.2-21.33,8.22-43.34,10.32-65.22,1.1-11.42,5.2-17.49,15.38-22.59,47.87-24,95.35-48.72,142.87-73.37,3-1.55,5.17-4.66,7.73-7l-1.74-4c-9.32,2.69-18.72,5.15-28,8.12-86.29,27.77-172.3,56.42-258.87,83.26-98.13,30.42-196.84,59-295.15,88.8-107.85,32.71-215.46,66.2-323.33,98.84-93.11,28.17-186.45,55.59-279.67,83.41-33.88,10.11-67.71,20.43-101.57,30.61-22.51,6.78-40.8-.19-48.84-18.52-7.64-17.44-.63-35.33,19.5-46.91q144.38-83.09,289-165.76,46.71-26.76,93.51-53.39C930,751,938.65,741.7,931.63,727.07s-19.75-14-32.74-8.48c-59.53,25.2-118.85,50.93-178.57,75.66-73.47,30.43-147.43,59.67-220.89,90.12C361.59,941.5,224,999.3,86.14,1056.28c-12.38,5.12-26.65,9.55-39.61,8.59-22.37-1.67-37.12-18.25-40.9-39.6C2,1005,11.23,984.59,31.23,974c21.89-11.65,44.74-21.5,67.18-32.11,83.43-39.44,166.72-79.19,250.35-118.21,90.09-42,180.61-83.16,270.77-125.07Q771.27,628,922.71,556.88c11.65-5.45,20.57-12.93,14.73-26.82-5.55-13.19-17.19-11.93-28.41-8.16q-129.66,43.67-259.27,87.43c-8.36,2.82-16.93,5-25.5,7.15-19.64,4.83-37.58-3.66-45.38-21.2-8.12-18.27-2.61-38.69,15.81-48.64,37.8-20.45,76.36-39.53,114.65-59.07q87.88-44.86,175.82-89.6,117.38-59.89,234.72-119.85c30.32-15.43,37.6-35.13,27.77-68.52-12.38-42.08-39.92-73.36-74.53-96.35-38.38-25.5-80.82-44.93-121.47-67-2.62-1.42-5.06-3.16-7.58-4.75ZM1106.73,637.6l1.54,3.88c3.67-.46,7.53-.34,11-1.46q93.83-30.24,187.55-60.77c33.75-11,55.8-36.66,77.49-62.54,6.61-7.89,4.36-13.53-6.35-13.75-36.93-.77-72.45,3.07-104.52,24.69-50.8,34.23-102.51,67.14-153.79,100.66C1115.2,631.21,1111,634.49,1106.73,637.6Zm246.48-268.85c-4.36-2.18-6.65-4.23-9-4.37-33.84-2-67.14-2.15-98.18,15.68-47.39,27.23-95.48,53.25-143.22,79.88-4.54,2.53-8.74,5.7-16.21,10.63,5.93.64,8,1.41,9.77,1,62.19-15.38,124.62-29.86,186.38-46.79C1312.85,416.48,1333.31,393.56,1353.21,368.75Zm554.52-203.06c-29.46-.28-53.56,23.74-53.81,53.63s23.31,54.23,52.95,54.47c29.93.25,55.05-24.51,55.26-54.48C1962.33,190.86,1937.09,166,1907.73,165.69ZM1510.54,447.4l1.56,3.5c8.1-2.34,16.27-4.46,24.28-7.06q64.51-20.86,128.95-42c30-9.89,50.29-30.84,69.19-60.18-31.83-1.43-59.16-1.47-83.53,13.9-38.21,24.1-75.83,49.13-113.66,73.83C1528.32,435.29,1519.46,441.4,1510.54,447.4Zm-37.92-128.09c5.62,0,7.69.4,9.55-.05,50.94-12.25,102-23.84,152.69-37.2,26.42-7,44.81-26.07,63.1-48-5.55-2.29-8.8-4.62-12.21-4.87-25.53-1.92-50.62-1.46-74,11.56-41.9,23.33-84.12,46.09-126.14,69.21C1482,311.94,1478.85,314.79,1472.62,319.31Z"/></svg>